<?xml version="1.0" standalone="no"?>
<!DOCTYPE svg PUBLIC "-//W3C//DTD SVG 20010904//EN"
 "http://www.w3.org/TR/2001/REC-SVG-20010904/DTD/svg10.dtd">
<svg version="1.0" xmlns="http://www.w3.org/2000/svg"
 width="200.000000pt" height="200.000000pt" viewBox="0 0 200.000000 200.000000"
 preserveAspectRatio="xMidYMid meet">
<metadata>
Created by potrace 1.11, written by Peter Selinger 2001-2013
</metadata>
<g transform="translate(0.000000,200.000000) scale(0.100000,-0.100000)"
fill="#000000" stroke="none">
<path d="M0 1000 l0 -1000 1000 0 1000 0 0 1000 0 1000 -1000 0 -1000 0 0
-1000z m930 328 c0 -59 -4 -68 -112 -267 -61 -113 -120 -216 -131 -228 l-20
-23 131 0 132 0 0 -60 0 -60 -200 0 -200 0 0 57 c0 54 7 69 112 263 61 113
122 217 136 233 l26 27 -137 0 -137 0 0 60 0 60 200 0 200 0 0 -62z m449 -142
c50 -26 55 -52 59 -283 l3 -213 -60 0 -61 0 0 178 c0 144 -3 182 -16 200 -22
31 -67 29 -93 -4 -19 -25 -21 -40 -21 -200 l0 -174 -60 0 -60 0 0 250 0 250
49 0 c48 0 50 -1 57 -32 4 -18 9 -27 11 -20 3 7 21 24 41 37 42 29 107 33 151
11z"/>
</g>
</svg>
